<svg width="40" height="40" viewBox="0 0 40 40" fill="none" xmlns="http://www.w3.org/2000/svg">
  <rect width="40" height="40" rx="8" fill="#2B5AFF"/>
  <path d="M12 16C12 13.7909 13.7909 12 16 12H24C26.2091 12 28 13.7909 28 16V24C28 26.2091 26.2091 28 24 28H16C13.7909 28 12 26.2091 12 24V16Z" fill="white"/>
  <path d="M16 18C16 17.4477 16.4477 17 17 17H23C23.5523 17 24 17.4477 24 18C24 18.5523 23.5523 19 23 19H17C16.4477 19 16 18.5523 16 18Z" fill="#2B5AFF"/>
  <path d="M16 21C16 20.4477 16.4477 20 17 20H21C21.5523 20 22 20.4477 22 21C22 21.5523 21.5523 22 21 22H17C16.4477 22 16 21.5523 16 21Z" fill="#2B5AFF"/>
  <circle cx="20" cy="14" r="1.5" fill="#2B5AFF"/>
</svg>

